<svg width="72" height="72" viewBox="0 0 72 72" fill="none" xmlns="http://www.w3.org/2000/svg">
<path d="M17.1 28.758V45.0424C17.1 47.208 15.3984 48.9377 13.2328 48.9377C11.0812 48.9377 9 47.1939 9 45.0424V28.758C9 26.6346 11.0812 24.8908 13.2328 24.8908C15.3562 24.8908 17.1 26.6346 17.1 28.758ZM18.6188 50.8361C18.6188 53.1424 20.475 54.9986 22.7812 54.9986H25.5797L25.6219 63.5908C25.6219 68.7799 33.3844 68.7377 33.3844 63.5908V54.9986H38.6156V63.5908C38.6156 68.7518 46.4203 68.7658 46.4203 63.5908V54.9986H49.2609C51.5391 54.9986 53.3953 53.1424 53.3953 50.8361V25.608H18.6188V50.8361ZM53.4937 24.2439H18.4641C18.4641 18.2252 22.0641 12.9939 27.4078 10.2658L24.7219 5.30175C24.3281 4.61269 25.3266 4.17675 25.6641 4.76738L28.3922 9.77363C33.3 7.59394 38.9391 7.70644 43.6219 9.77363L46.3359 4.78144C46.6875 4.17675 47.6719 4.62675 47.2781 5.31581L44.5922 10.2658C49.8937 12.9939 53.4937 18.2252 53.4937 24.2439ZM29.4891 16.4393C29.4891 15.6377 28.8422 14.9627 28.0125 14.9627C27.2109 14.9627 26.5781 15.6377 26.5781 16.4393C26.5781 17.2408 27.225 17.9158 28.0125 17.9158C28.8422 17.9158 29.4891 17.2408 29.4891 16.4393ZM45.4359 16.4393C45.4359 15.6377 44.7891 14.9627 44.0016 14.9627C43.1719 14.9627 42.525 15.6377 42.525 16.4393C42.525 17.2408 43.1719 17.9158 44.0016 17.9158C44.7891 17.9158 45.4359 17.2408 45.4359 16.4393ZM58.7672 24.8908C56.6437 24.8908 54.9 26.5924 54.9 28.758V45.0424C54.9 47.208 56.6437 48.9377 58.7672 48.9377C60.9328 48.9377 63 47.1939 63 45.0424V28.758C63 26.5924 60.9188 24.8908 58.7672 24.8908Z" fill="#407BFF"/>
</svg>
