<svg width="72" height="72" viewBox="0 0 72 72" fill="none" xmlns="http://www.w3.org/2000/svg">
<path d="M60.75 4.5H11.25C7.52344 4.5 4.5 7.52344 4.5 11.25V60.75C4.5 64.4766 7.52344 67.5 11.25 67.5H60.75C64.4766 67.5 67.5 64.4766 67.5 60.75V11.25C67.5 7.52344 64.4766 4.5 60.75 4.5ZM22.3594 54.0703C21.5859 55.4203 19.8562 55.8703 18.5203 55.0969C17.1703 54.3234 16.7203 52.5938 17.4938 51.2578L19.5047 47.7844C21.7687 47.0953 23.625 47.6297 25.0734 49.3875L22.3594 54.0703ZM41.8922 46.4906H16.3125C14.7656 46.4906 13.5 45.225 13.5 43.6781C13.5 42.1313 14.7656 40.8656 16.3125 40.8656H23.4844L32.6812 24.9469L29.7984 19.9688C29.025 18.6187 29.4891 16.9031 30.825 16.1297C32.175 15.3562 33.8906 15.8203 34.6641 17.1562L35.9156 19.3219L37.1672 17.1562C37.9406 15.8062 39.6703 15.3562 41.0063 16.1297C42.3563 16.9031 42.8062 18.6328 42.0328 19.9688L29.9672 40.8656H38.7C41.5406 40.8656 43.1297 44.1984 41.8922 46.4906ZM55.6875 46.4906H51.6094L54.3656 51.2578C55.1391 52.6078 54.675 54.3234 53.3391 55.0969C51.9891 55.8703 50.2734 55.4062 49.5 54.0703C44.8734 46.0687 41.4141 40.05 39.0938 36.0562C36.7453 31.9781 38.4188 27.9 40.0922 26.5219C41.9344 29.7141 44.6906 34.4953 48.375 40.8656H55.6875C57.2344 40.8656 58.5 42.1313 58.5 43.6781C58.5 45.2391 57.2344 46.4906 55.6875 46.4906Z" fill="#407BFF"/>
</svg>
