<svg width="72" height="72" viewBox="0 0 72 72" fill="none" xmlns="http://www.w3.org/2000/svg">
<g clip-path="url(#clip0_327_1588)">
<path d="M31.3763 64.7437L24.5138 62.7524C23.7938 62.5499 23.3888 61.7962 23.5913 61.0762L38.9475 8.17867C39.15 7.45867 39.9038 7.05367 40.6238 7.25617L47.4863 9.24742C48.2063 9.44992 48.6113 10.2037 48.4088 10.9237L33.0525 63.8212C32.8388 64.5412 32.0963 64.9574 31.3763 64.7437ZM18.5513 52.1212L23.445 46.9012C23.9625 46.3499 23.9288 45.4724 23.355 44.9662L13.1625 35.9999L23.355 27.0337C23.9288 26.5274 23.9738 25.6499 23.445 25.0987L18.5513 19.8787C18.045 19.3387 17.19 19.3049 16.6388 19.8224L0.427505 35.0099C-0.146245 35.5387 -0.146245 36.4499 0.427505 36.9787L16.6388 52.1774C17.19 52.6949 18.045 52.6724 18.5513 52.1212ZM55.3613 52.1887L71.5725 36.9899C72.1463 36.4612 72.1463 35.5499 71.5725 35.0212L55.3613 19.8112C54.8213 19.3049 53.9663 19.3274 53.4488 19.8674L48.555 25.0874C48.0375 25.6387 48.0713 26.5162 48.645 27.0224L58.8375 35.9999L48.645 44.9662C48.0713 45.4724 48.0263 46.3499 48.555 46.9012L53.4488 52.1212C53.955 52.6724 54.81 52.6949 55.3613 52.1887Z" fill="#407BFF"/>
</g>
<defs>
<clipPath id="clip0_327_1588">
<rect width="72" height="72" fill="white"/>
</clipPath>
</defs>
</svg>
