<svg width="24" height="24" viewBox="0 0 24 24" fill="none" xmlns="http://www.w3.org/2000/svg">
<path d="M12.0047 6.60928C9.02344 6.60928 6.61876 9.01397 6.61876 11.9952C6.61876 14.9765 9.02344 17.3812 12.0047 17.3812C14.9859 17.3812 17.3906 14.9765 17.3906 11.9952C17.3906 9.01397 14.9859 6.60928 12.0047 6.60928ZM12.0047 15.4968C10.0781 15.4968 8.50313 13.9265 8.50313 11.9952C8.50313 10.064 10.0734 8.49365 12.0047 8.49365C13.9359 8.49365 15.5063 10.064 15.5063 11.9952C15.5063 13.9265 13.9313 15.4968 12.0047 15.4968ZM18.8672 6.38897C18.8672 7.0874 18.3047 7.64522 17.6109 7.64522C16.9125 7.64522 16.3547 7.08272 16.3547 6.38897C16.3547 5.69522 16.9172 5.13271 17.6109 5.13271C18.3047 5.13271 18.8672 5.69522 18.8672 6.38897ZM22.4344 7.66397C22.3547 5.98115 21.9703 4.49053 20.7375 3.2624C19.5094 2.03428 18.0188 1.6499 16.3359 1.56553C14.6016 1.46709 9.40313 1.46709 7.66876 1.56553C5.99063 1.64521 4.50001 2.02959 3.26719 3.25771C2.03438 4.48584 1.65469 5.97646 1.57032 7.65928C1.47188 9.39365 1.47188 14.5921 1.57032 16.3265C1.65001 18.0093 2.03438 19.4999 3.26719 20.728C4.50001 21.9562 5.98594 22.3405 7.66876 22.4249C9.40313 22.5233 14.6016 22.5233 16.3359 22.4249C18.0188 22.3452 19.5094 21.9608 20.7375 20.728C21.9656 19.4999 22.35 18.0093 22.4344 16.3265C22.5328 14.5921 22.5328 9.39834 22.4344 7.66397ZM20.1938 18.1874C19.8281 19.1062 19.1203 19.814 18.1969 20.1843C16.8141 20.7327 13.5328 20.6062 12.0047 20.6062C10.4766 20.6062 7.19063 20.728 5.81251 20.1843C4.89376 19.8187 4.18594 19.1108 3.81563 18.1874C3.26719 16.8046 3.39376 13.5233 3.39376 11.9952C3.39376 10.4671 3.27188 7.18115 3.81563 5.80303C4.18126 4.88428 4.88907 4.17646 5.81251 3.80615C7.19532 3.25771 10.4766 3.38428 12.0047 3.38428C13.5328 3.38428 16.8188 3.2624 18.1969 3.80615C19.1156 4.17178 19.8234 4.87959 20.1938 5.80303C20.7422 7.18584 20.6156 10.4671 20.6156 11.9952C20.6156 13.5233 20.7422 16.8093 20.1938 18.1874Z" fill="black"/>
</svg>
