<svg width="72" height="72" viewBox="0 0 72 72" fill="none" xmlns="http://www.w3.org/2000/svg">
<path d="M60.75 4.5H11.25C7.52344 4.5 4.5 7.52344 4.5 11.25V60.75C4.5 64.4766 7.52344 67.5 11.25 67.5H60.75C64.4766 67.5 67.5 64.4766 67.5 60.75V11.25C67.5 7.52344 64.4766 4.5 60.75 4.5ZM38.7844 53.6344C38.7844 59.7656 35.1844 62.5641 29.9391 62.5641C25.2 62.5641 22.4578 60.1172 21.0516 57.15L25.875 54.2391C26.8031 55.8844 27.6469 57.2766 29.6859 57.2766C31.6266 57.2766 32.8641 56.5172 32.8641 53.55V33.4266H38.7844V53.6344ZM52.7906 62.5641C47.2922 62.5641 43.7344 59.9484 42.0047 56.5172L46.8281 53.7328C48.0938 55.8 49.7531 57.3328 52.6641 57.3328C55.1109 57.3328 56.6859 56.1094 56.6859 54.4078C56.6859 52.3828 55.0828 51.6656 52.3687 50.4703L50.8922 49.8375C46.6172 48.0234 43.7906 45.7313 43.7906 40.9078C43.7906 36.4641 47.1797 33.0891 52.4531 33.0891C56.2219 33.0891 58.9219 34.3969 60.8625 37.8281L56.25 40.7812C55.2375 38.9672 54.1406 38.25 52.4391 38.25C50.7094 38.25 49.6125 39.3469 49.6125 40.7812C49.6125 42.5531 50.7094 43.2703 53.2547 44.3813L54.7313 45.0141C59.7656 47.1656 62.5922 49.3734 62.5922 54.3234C62.5922 59.6391 58.4016 62.5641 52.7906 62.5641Z" fill="#407BFF"/>
</svg>
