<svg width="114" height="27" viewBox="0 0 114 27" fill="none" xmlns="http://www.w3.org/2000/svg">
<path d="M5.516 25.64C4.988 26.168 4.352 26.432 3.608 26.432C2.864 26.432 2.228 26.168 1.7 25.64C1.172 25.112 0.908 24.476 0.908 23.732C0.908 22.988 1.16 22.352 1.664 21.824C2.192 21.296 2.84 21.032 3.608 21.032C4.352 21.032 4.988 21.296 5.516 21.824C6.044 22.352 6.308 22.988 6.308 23.732C6.308 24.476 6.044 25.112 5.516 25.64ZM18.7322 26.468C16.3082 26.468 14.2442 25.916 12.5402 24.812C10.8602 23.708 9.68422 22.196 9.01222 20.276L12.5762 18.188C13.5842 21.02 15.6722 22.436 18.8402 22.436C20.4002 22.436 21.5642 22.136 22.3322 21.536C23.1242 20.912 23.5202 20.108 23.5202 19.124C23.5202 18.092 23.1002 17.312 22.2602 16.784C21.4202 16.232 19.9322 15.632 17.7962 14.984C16.5962 14.624 15.6242 14.288 14.8802 13.976C14.1362 13.664 13.3442 13.232 12.5042 12.68C11.6882 12.104 11.0762 11.396 10.6682 10.556C10.2602 9.716 10.0562 8.732 10.0562 7.604C10.0562 5.372 10.8482 3.608 12.4322 2.312C14.0162 0.991998 15.9242 0.331998 18.1562 0.331998C20.1722 0.331998 21.9362 0.823998 23.4482 1.808C24.9602 2.792 26.1242 4.148 26.9402 5.876L23.4482 7.892C22.3922 5.54 20.6282 4.364 18.1562 4.364C16.9562 4.364 15.9962 4.652 15.2762 5.228C14.5562 5.78 14.1962 6.536 14.1962 7.496C14.1962 8.432 14.5562 9.176 15.2762 9.728C16.0202 10.256 17.3522 10.82 19.2722 11.42C20.2322 11.732 20.9282 11.972 21.3602 12.14C21.8162 12.284 22.4402 12.524 23.2322 12.86C24.0482 13.196 24.6602 13.532 25.0682 13.868C25.4762 14.204 25.9082 14.624 26.3642 15.128C26.8442 15.632 27.1802 16.208 27.3722 16.856C27.5642 17.504 27.6602 18.236 27.6602 19.052C27.6602 21.332 26.8322 23.144 25.1762 24.488C23.5442 25.808 21.3962 26.468 18.7322 26.468ZM40.4917 11.744H36.0277V20.384C36.0277 21.128 36.1957 21.668 36.5317 22.004C36.8677 22.316 37.3597 22.496 38.0077 22.544C38.6797 22.568 39.5077 22.556 40.4917 22.508V26C37.5157 26.36 35.3797 26.108 34.0837 25.244C32.7877 24.356 32.1397 22.736 32.1397 20.384V11.744H28.8277V8H32.1397V4.112L36.0277 2.96V8H40.4917V11.744ZM56.3258 8H60.2138V26H56.3258V23.696C55.1498 25.544 53.2898 26.468 50.7458 26.468C48.6818 26.468 47.0138 25.808 45.7418 24.488C44.4698 23.168 43.8338 21.356 43.8338 19.052V8H47.7218V18.656C47.7218 20 48.0818 21.032 48.8018 21.752C49.5218 22.472 50.5058 22.832 51.7538 22.832C53.1218 22.832 54.2258 22.412 55.0658 21.572C55.9058 20.708 56.3258 19.4 56.3258 17.648V8ZM79.0162 0.799998H82.9042V26H79.0162V23.408C77.5522 25.448 75.4522 26.468 72.7162 26.468C70.2442 26.468 68.1322 25.556 66.3802 23.732C64.6282 21.884 63.7522 19.64 63.7522 17C63.7522 14.336 64.6282 12.092 66.3802 10.268C68.1322 8.444 70.2442 7.532 72.7162 7.532C75.4522 7.532 77.5522 8.54 79.0162 10.556V0.799998ZM69.2602 21.14C70.3402 22.22 71.6962 22.76 73.3282 22.76C74.9602 22.76 76.3162 22.22 77.3962 21.14C78.4762 20.036 79.0162 18.656 79.0162 17C79.0162 15.344 78.4762 13.976 77.3962 12.896C76.3162 11.792 74.9602 11.24 73.3282 11.24C71.6962 11.24 70.3402 11.792 69.2602 12.896C68.1802 13.976 67.6402 15.344 67.6402 17C67.6402 18.656 68.1802 20.036 69.2602 21.14ZM91.108 4.58C90.628 5.06 90.052 5.3 89.38 5.3C88.708 5.3 88.12 5.06 87.616 4.58C87.136 4.076 86.896 3.488 86.896 2.816C86.896 2.144 87.136 1.568 87.616 1.088C88.096 0.583998 88.684 0.331998 89.38 0.331998C90.076 0.331998 90.664 0.583998 91.144 1.088C91.624 1.568 91.864 2.144 91.864 2.816C91.864 3.488 91.612 4.076 91.108 4.58ZM87.436 26V8H91.324V26H87.436ZM104.334 26.468C101.694 26.468 99.4503 25.556 97.6023 23.732C95.7543 21.908 94.8303 19.664 94.8303 17C94.8303 14.336 95.7543 12.092 97.6023 10.268C99.4503 8.444 101.694 7.532 104.334 7.532C106.998 7.532 109.242 8.444 111.066 10.268C112.914 12.092 113.838 14.336 113.838 17C113.838 19.664 112.914 21.908 111.066 23.732C109.242 25.556 106.998 26.468 104.334 26.468ZM100.338 21.068C101.418 22.148 102.75 22.688 104.334 22.688C105.918 22.688 107.25 22.148 108.33 21.068C109.41 19.988 109.95 18.632 109.95 17C109.95 15.368 109.41 14.012 108.33 12.932C107.25 11.852 105.918 11.312 104.334 11.312C102.75 11.312 101.418 11.852 100.338 12.932C99.2583 14.012 98.7183 15.368 98.7183 17C98.7183 18.632 99.2583 19.988 100.338 21.068Z" fill="white"/>
</svg>
