<svg width="72" height="72" viewBox="0 0 72 72" fill="none" xmlns="http://www.w3.org/2000/svg">
<path d="M58.8094 24.9189C58.05 24.6658 57.2906 24.4268 56.5312 24.2018C56.6578 23.6814 56.7703 23.1611 56.8828 22.6408C58.6125 14.2596 57.4734 7.52363 53.6344 5.30176C49.9359 3.17832 43.9031 5.38613 37.8 10.7018C37.1953 11.2221 36.6047 11.7705 36.0422 12.3189C35.6625 11.9533 35.2687 11.5877 34.875 11.2361C28.4766 5.55488 22.0641 3.16426 18.225 5.40019C14.5406 7.53769 13.4437 13.8799 14.9906 21.8111C15.1453 22.5986 15.3141 23.3721 15.5109 24.1596C14.6109 24.4127 13.725 24.6939 12.8953 24.9893C5.38594 27.5908 0 31.6971 0 35.9439C0 40.3314 5.7375 44.733 13.5422 47.4049C14.175 47.6158 14.8078 47.8268 15.4547 48.0096C15.2438 48.8533 15.0609 49.683 14.8922 50.5408C13.4156 58.3455 14.5688 64.533 18.2531 66.6564C22.05 68.8502 28.4344 66.6002 34.65 61.158C35.1422 60.7221 35.6344 60.2721 36.1266 59.7939C36.7453 60.3986 37.3922 60.9752 38.0391 61.5377C44.0578 66.7127 50.0063 68.808 53.6766 66.6846C57.4734 64.4908 58.7109 57.8393 57.1078 49.7393C56.9813 49.1205 56.8406 48.4877 56.6859 47.8408C57.1359 47.7143 57.5719 47.5736 58.0078 47.433C66.1219 44.7471 72 40.4018 72 35.9439C72 31.683 66.4594 27.5486 58.8094 24.9189ZM39.7828 12.9799C45.0141 8.42363 49.8937 6.63769 52.1156 7.91738C54.4922 9.28144 55.4062 14.7939 53.9156 22.0361C53.8172 22.5143 53.7188 22.9783 53.5922 23.4424C50.4703 22.7393 47.3062 22.233 44.1281 21.9518C42.3 19.3361 40.3031 16.833 38.1375 14.4846C38.6859 13.9643 39.2203 13.4721 39.7828 12.9799ZM23.5125 43.2424C24.2297 44.4658 24.9609 45.6893 25.7344 46.8846C23.5406 46.6455 21.3609 46.2939 19.2094 45.8299C19.8281 43.8049 20.6016 41.7096 21.5016 39.5721C22.1484 40.8096 22.8094 42.033 23.5125 43.2424ZM19.2516 26.3252C21.2766 25.8752 23.4281 25.5096 25.6641 25.2283C24.9188 26.3955 24.1875 27.5908 23.4984 28.8002C22.8094 29.9955 22.1344 31.2189 21.5016 32.4564C20.6156 30.3611 19.8703 28.308 19.2516 26.3252ZM23.1047 36.0143C24.0328 34.0736 25.0453 32.1752 26.1141 30.3049C27.1828 28.4346 28.3359 26.6205 29.5453 24.8346C31.6547 24.6799 33.8063 24.5955 36 24.5955C38.1937 24.5955 40.3594 24.6799 42.4547 24.8346C43.65 26.6064 44.7891 28.4205 45.8719 30.2768C46.9547 32.133 47.9672 34.0314 48.9234 35.958C47.9813 37.8986 46.9688 39.8111 45.8859 41.6955C44.8172 43.5658 43.6781 45.3799 42.4828 47.1799C40.3875 47.3346 38.2078 47.4049 36 47.4049C33.7922 47.4049 31.6547 47.3346 29.5875 47.208C28.3641 45.4221 27.2109 43.5939 26.1281 41.7236C25.0453 39.8533 24.0469 37.9549 23.1047 36.0143ZM48.5016 43.2142C49.2188 41.9767 49.8937 40.7252 50.5547 39.4596C51.4547 41.4986 52.2422 43.5658 52.9312 45.6893C50.7516 46.1814 48.5438 46.5611 46.3219 46.8143C47.0812 45.633 47.7984 44.4236 48.5016 43.2142ZM50.5266 32.4564C49.8656 31.2189 49.1906 29.9814 48.4875 28.7721C47.7984 27.5768 47.0812 26.3955 46.3359 25.2283C48.6 25.5096 50.7656 25.8893 52.7906 26.3533C52.1437 28.4346 51.3844 30.4596 50.5266 32.4564ZM36.0281 16.6361C37.5047 18.2393 38.8969 19.9268 40.1906 21.6705C37.4062 21.5439 34.6078 21.5439 31.8234 21.6705C33.2016 19.8564 34.6219 18.1689 36.0281 16.6361ZM19.7156 8.01582C22.0781 6.63769 27.3234 8.60644 32.85 13.5002C33.2016 13.8096 33.5531 14.1471 33.9188 14.4846C31.7391 16.833 29.7281 19.3361 27.8859 21.9518C24.7078 22.233 21.5578 22.7252 18.4359 23.4143C18.2531 22.6971 18.0984 21.9658 17.9438 21.2346C16.6219 14.4283 17.4937 9.29551 19.7156 8.01582ZM16.2703 45.0846C15.6797 44.9158 15.1031 44.733 14.5266 44.5361C11.5313 43.5939 8.12813 42.1033 5.66719 40.1486C4.24687 39.1643 3.29063 37.6455 3.02344 35.9439C3.02344 33.3705 7.46719 30.0799 13.8797 27.8439C14.6812 27.5627 15.4969 27.3096 16.3125 27.0705C17.2687 30.1221 18.4219 33.1174 19.7578 36.0143C18.4078 38.9533 17.2406 41.9908 16.2703 45.0846ZM32.6672 58.8658C30.3469 60.9893 27.6609 62.6768 24.7359 63.8299C23.175 64.5752 21.375 64.6455 19.7719 64.0127C17.5359 62.7189 16.6078 57.7549 17.8734 51.0752C18.0281 50.2877 18.1969 49.5002 18.3938 48.7268C21.5438 49.4018 24.7219 49.8658 27.9422 50.1049C29.7984 52.7346 31.8375 55.2518 34.0172 57.6143C33.5672 58.0502 33.1172 58.4721 32.6672 58.8658ZM36.1125 55.4486C34.6781 53.9017 33.2438 52.1861 31.8516 50.3439C33.2016 50.4002 34.5938 50.4283 36 50.4283C37.4484 50.4283 38.8687 50.4002 40.275 50.3299C38.9813 52.1158 37.5891 53.8174 36.1125 55.4486ZM54.4922 59.6674C54.3656 61.383 53.5219 62.9861 52.1719 64.0689C49.9359 65.3627 45.1688 63.6752 40.0219 59.2596C39.4313 58.7533 38.8406 58.2049 38.2359 57.6424C40.3875 55.2658 42.3703 52.7486 44.1703 50.1049C47.3906 49.8377 50.5969 49.3455 53.7609 48.6283C53.9016 49.2049 54.0281 49.7814 54.1406 50.3439C54.8297 53.3814 54.9422 56.5455 54.4922 59.6674ZM57.0516 44.5502C56.6578 44.6768 56.2641 44.8033 55.8563 44.9158C54.8719 41.8502 53.6625 38.8549 52.2703 35.9439C53.6203 33.0752 54.7594 30.1221 55.7156 27.0986C56.4469 27.3096 57.15 27.5346 57.825 27.7596C64.3781 30.0096 68.9766 33.3564 68.9766 35.9158C68.9766 38.6721 64.0687 42.2299 57.0516 44.5502ZM36 42.4408C39.5578 42.4408 42.4406 39.558 42.4406 36.0002C42.4406 32.4424 39.5578 29.5596 36 29.5596C32.4422 29.5596 29.5594 32.4424 29.5594 36.0002C29.5594 39.558 32.4422 42.4408 36 42.4408Z" fill="#407BFF"/>
</svg>
