<svg fill="none" height="193" viewBox="0 0 383 193" width="383" xmlns="http://www.w3.org/2000/svg"><path d="m281.598 18.3223 4.581 8.3762 8.376 4.5811-8.376 4.5811-4.581 8.3762-4.581-8.3762-8.376-4.5811 8.376-4.5811z" fill="#8870fc"/><path d="m286.177 26.6985-4.581-8.3762v25.9146l4.581-8.3762 8.376-4.5811z" fill="#3922a9"/><rect fill="#5c3bfe" height="124.715" rx="6" width="65.0731" x="317.928" y=".283203"/><path d="m318.178 85.459h56.1487v11.2268h-56.1487z" stroke="#3922a9" stroke-width=".5"/><path d="m321.939 88.0361h42.3277v2.3879h-42.3277z" fill="#947eff"/><path d="m321.939 91.7168h24.5162v2.3879h-24.5162z" fill="#ded8ff"/><path d="m318.178 100.063h56.1487v11.2268h-56.1487z" stroke="#3922a9" stroke-width=".5"/><path d="m321.939 102.642h42.3277v2.3879h-42.3277z" fill="#947eff"/><path d="m321.939 106.32h24.5162v2.3879h-24.5162z" fill="#ded8ff"/><path d="m318.178 114.671h56.1487v11.2268h-56.1487z" stroke="#3922a9" stroke-width=".5"/><path d="m321.939 117.249h42.3277v2.3879h-42.3277z" fill="#947eff"/><path d="m321.939 120.931h24.5162v2.3879h-24.5162z" fill="#ded8ff"/><path d="m350.764 17.4766h24.0066v5.61621h-24.0066z" fill="#fff"/><path d="m317.928 30.1855h56.8442v31.5016h-56.8442z" fill="#947eff"/><path d="m321.182 34h11.1147v1.80926h-11.1147z" fill="#5c3bfe"/><path d="m334.174 34h11.1147v1.80926h-11.1147z" fill="#5c3bfe"/><path d="m347.166 34h11.1147v1.80926h-11.1147z" fill="#5c3bfe"/><path d="m360.158 34h11.1147v1.80926h-11.1147z" fill="#ded8ff"/><path d="m321.182 55.2764h25.922v2.67038h-25.922z" fill="#5c3bfe"/><path d="m321.182 51.5576h17.0546v2.67038h-17.0546z" fill="#3922a9"/><path d="m317.928 18.0654h6.50677v.519384h-6.50677z" fill="#fff"/><path d="m317.928 20.0234h6.50677v.519384h-6.50677z" fill="#fff"/><path d="m317.928 21.9824h6.50677v.519384h-6.50677z" fill="#fff"/><rect height="124.215" rx="5.75" stroke="#3922a9" stroke-width=".5" width="64.9887" x="313.857" y="4.85352"/><path d="m326.549 4.60352c0 3.19391 2.589 5.78308 5.783 5.78308h28.042c3.194 0 5.783-2.58917 5.783-5.78308" stroke="#3922a9" stroke-width=".5"/><path d="m327.418 67.8594h35.3541v7.20589h-35.3541z" fill="#fff"/><path d="m327.418 77.3975h25.4749v3.62891h-25.4749z" fill="#ded8ff"/><circle cx="321.233" cy="71.4637" fill="#3922a9" r="3.1063"/><path d="m319.99 70.2158h2.49393v2.49393h-2.49393z" fill="#fff"/><path d="m116.207 55.002h174.048v115.537h-174.048z" stroke="#947eff" stroke-width=".5"/><path d="m176.93 170.392-41.533 21.481m0 0h107.716m-107.716 0h-68.2779m175.9939 0v-21.481m0 21.481h96.309" stroke="#947eff" stroke-width=".5"/><path d="m125.68 65.7686h43.6323v94.0058h-43.6323z" stroke="#947eff" stroke-width=".5"/><path d="m176.117 65.3242h107.26v82.6284h-107.26z" fill="#5c3bfe"/><path d="m176.367 65.5742h106.76v10.3938h-106.76z" fill="#947eff" stroke="#947eff" stroke-width=".5"/><circle cx="182.178" cy="70.9319" fill="#3922a9" r="1.4397"/><circle cx="187.418" cy="70.9319" fill="#ded8ff" r="1.4397"/><path d="m129.789 77.6475h35.4232v8.12329h-35.4232z" stroke="#ded8ff" stroke-width=".5"/><path d="m125.68 151.649h43.632v8.12329h-43.632z" stroke="#947eff" stroke-width=".5"/><circle cx="147.611" cy="155.573" fill="#ded8ff" r="1.90623"/><circle cx="130.938" cy="70.9319" fill="#3922a9" r="1.4397"/><path d="m141.418 93.1973h24.0415v3.03341h-24.0415z" fill="#5c3bfe"/><circle cx="134.076" cy="96.2295" fill="#5c3bfe" r="4.57419"/><circle cx="134.066" cy="95.4689" fill="#fff" r="1.0851"/><path d="m134.066 96.5557c-.842 0-1.525.6825-1.525 1.5246h3.049c0-.8421-.682-1.5246-1.524-1.5246z" fill="#fff"/><circle cx="134.076" cy="111.211" fill="#5c3bfe" r="4.57419"/><circle cx="134.066" cy="110.45" fill="#fff" r="1.0851"/><path d="m134.066 111.537c-.842 0-1.525.683-1.525 1.525h3.049c0-.842-.682-1.525-1.524-1.525z" fill="#fff"/><circle cx="134.076" cy="126.195" fill="#5c3bfe" r="4.57419"/><circle cx="134.066" cy="125.433" fill="#fff" r="1.0851"/><path d="m134.066 126.52c-.842 0-1.525.682-1.525 1.524h3.049c0-.842-.682-1.524-1.524-1.524z" fill="#fff"/><circle cx="134.076" cy="141.177" fill="#5c3bfe" r="4.57419"/><circle cx="134.066" cy="140.412" fill="#fff" r="1.0851"/><path d="m134.066 141.499c-.842 0-1.525.683-1.525 1.525h3.049c0-.842-.682-1.525-1.524-1.525z" fill="#fff"/><path d="m141.418 97.2061h16.2013v2.28169h-16.2013z" fill="#3922a9"/><path d="m141.42 108.18h24.0415v3.03341h-24.0415z" fill="#5c3bfe"/><path d="m141.42 112.188h16.2013v2.28169h-16.2013z" fill="#3922a9"/><path d="m141.42 123.159h24.0415v3.03341h-24.0415z" fill="#5c3bfe"/><path d="m141.42 127.168h16.2013v2.28169h-16.2013z" fill="#3922a9"/><path d="m141.42 138.141h24.0415v3.03341h-24.0415z" fill="#5c3bfe"/><path d="m141.42 142.149h16.2013v2.28169h-16.2013z" fill="#3922a9"/><circle cx="136.18" cy="70.9319" fill="#947eff" r="1.4397"/><circle cx="141.422" cy="70.9319" fill="#ded8ff" r="1.4397"/><path d="m159.002 153.667h3.78886v3.78886h-3.78886z" fill="#ded8ff"/><path d="m132.18 155.564 2.841-1.641v3.281z" fill="#ded8ff"/><path d="m261.66 69.7051h16.2013v2.28169h-16.2013z" fill="#ded8ff"/><path d="m181.918 81.1787h95.6627v29.542h-95.6627z" stroke="#ded8ff" stroke-width=".5"/><path d="m181.92 115.781h25.4146v27.2647h-25.4146z" stroke="#ded8ff" stroke-width=".5"/><path d="m184.68 119.064h19.8997v15.9198h-19.8997z" fill="#3922a9"/><path d="m189.711 122.787-2.842-1.64v3.281z" fill="#fff"/><path d="m186.527 137.379h16.2013v2.28169h-16.2013z" fill="#3922a9"/><path d="m189.055 131.484h14.4357v1.48711h-14.4357z" fill="#ded8ff"/><path d="m193.998 129.413h9.49752v1.48711h-9.49752z" fill="#947eff"/><path d="m217.059 115.777h25.4146v27.2647h-25.4146z" stroke="#ded8ff" stroke-width=".5"/><path d="m219.818 119.063h19.8997v15.9198h-19.8997z" fill="#3922a9"/><path d="m224.85 122.783-2.842-1.64v3.281z" fill="#fff"/><path d="m221.666 137.378h16.2013v2.28169h-16.2013z" fill="#3922a9"/><path d="m224.193 131.48h14.4357v1.48711h-14.4357z" fill="#ded8ff"/><path d="m229.137 129.412h9.49752v1.48711h-9.49752z" fill="#947eff"/><path d="m252.197 115.777h25.4146v27.2647h-25.4146z" stroke="#ded8ff" stroke-width=".5"/><path d="m254.955 119.063h19.8997v15.9198h-19.8997z" fill="#3922a9"/><path d="m259.986 122.783-2.841-1.64v3.281z" fill="#fff"/><path d="m256.805 137.378h16.2013v2.28169h-16.2013z" fill="#3922a9"/><path d="m259.332 131.48h14.4357v1.48711h-14.4357z" fill="#ded8ff"/><path d="m264.273 129.412h9.49752v1.48711h-9.49752z" fill="#947eff"/><path d="m211.888 94.9267-12.851 15.4823h64.002l-20.358-24.5262-19.15 23.0702z" fill="#ded8ff"/><g stroke-width=".5"><circle cx="133.893" cy="81.5137" r="1.62695" stroke="#947eff"/><path d="m135.012 82.6094 1.165 1.1651" stroke="#947eff"/><path d="m351.886 149.557.062.087.105.016c6.828 1.042 12.058 6.94 12.058 14.058 0 7.855-6.367 14.223-14.222 14.223h-7.072v-10.625h5.273.488l-.285-.396-7.821-10.856-.196-.272-.205.266-8.367 10.855-.311.403h.509 5.558v10.625h-7.041c-7.854 0-14.222-6.368-14.222-14.223 0-7.205 5.36-13.16 12.31-14.094l.107-.014.063-.089c2.579-3.62 6.81-5.98 11.592-5.98 4.798 0 9.042 2.376 11.617 6.016z" stroke="#5c3bfe"/><path d="m.25 34.957h8.40345v8.40345h-8.40345z" fill="#ded8ff" stroke="#3922a9"/><path d="m4.26367 43.4844v11.0448m11.41143 15.54h-11.41143v-15.54m0 0h11.41143" stroke="#5c3bfe"/><circle cx="19.9908" cy="54.5836" fill="#ded8ff" r="4.06697" stroke="#3922a9"/><circle cx="19.9908" cy="70.0699" fill="#ded8ff" r="4.06697" stroke="#3922a9"/><path d="m16.1465 39.043h30.3822" stroke="#ded8ff"/><path d="m31.334 54.584h15.1911" stroke="#5c3bfe"/><path d="m31.334 70.0684h15.1911" stroke="#5c3bfe"/><path d="m.25 118.97h8.40345v8.40345h-8.40345z" fill="#ded8ff" stroke="#3922a9"/><path d="m4.26367 127.5v11.045m11.41143 15.54h-11.41143v-15.54m0 0h11.41143" stroke="#5c3bfe"/><circle cx="19.9908" cy="138.598" fill="#ded8ff" r="4.06697" stroke="#3922a9"/><circle cx="19.9908" cy="154.084" fill="#ded8ff" r="4.06697" stroke="#3922a9"/><g stroke="#947eff"><path d="m16.1465 123.056h30.3822"/><path d="m31.334 138.597h15.1911"/><path d="m31.334 154.084h15.1911"/></g></g><path d="m0 86.6133h8.90345v8.90345h-8.90345z" fill="#5c3bfe"/><path d="m4.26367 95.3936v11.0444h11.41143" stroke="#5c3bfe" stroke-width=".5"/><circle cx="19.9908" cy="106.492" fill="#5c3bfe" r="4.31697"/><path d="m16.1465 90.9492h30.3822" stroke="#5c3bfe" stroke-width=".5"/><path d="m31.334 106.492h15.1911" stroke="#5c3bfe" stroke-width=".5"/><path d="m84.6973 128.567v17.478h17.4777v-17.478z" stroke="#ded8ff" stroke-width=".5"/><path d="m84.6973 111.22v17.477h17.4777v-17.477z" stroke="#ded8ff" stroke-width=".5"/><path d="m84.6973 145.903v17.478h17.4777v-17.478z" stroke="#ded8ff" stroke-width=".5"/><circle fill="#5c3bfe" r="5.23682" transform="matrix(.00000004 1 1 -.00000004 76.0981 154.674)"/><circle fill="#947eff" r="5.23682" transform="matrix(-.707107 .707107 .707107 .707107 93.2383 137.456)"/><path d="m96.9414 141.16c-2.0451 2.045-5.3609 2.045-7.406 0l7.406-7.406c2.0451 2.045 2.0451 5.361 0 7.406z" fill="#ded8ff"/><path d="m67.3633 145.916v17.477h17.4773v-17.477z" stroke="#ded8ff" stroke-width=".5"/><path d="m67.3633 128.563v17.478h17.4773v-17.478z" stroke="#ded8ff" stroke-width=".5"/><path d="m67.3633 180.787v-17.477h17.4773v17.477z" stroke="#ded8ff" stroke-width=".5"/><path d="m71.0769 87.1846-2.5451 4.6534-4.6534 2.5451 4.6534 2.545 2.5451 4.6539 2.545-4.6539 4.6535-2.545-4.6535-2.5451z" fill="#8870fc"/><path d="m68.5331 91.838 2.545-4.6534v14.3974l-2.545-4.6539-4.6535-2.545z" fill="#3922a9"/><g stroke-width=".5"><path d="m103.07 73.4949v-7.5291h-15.0583v7.5291" stroke="#5c3bfe"/><path d="m103.07 73.4944v7.529h-15.0583v-7.529" stroke="#ded8ff"/><path d="m100.082 73.4942v4.539h-9.0781v-4.539" stroke="#3922a9"/><path d="m100.082 73.4922v-4.5391h-9.0781v4.5391" stroke="#8870fc"/><path d="m97.1692 73.4945v1.6295h-3.259v-1.6295" stroke="#8870fc"/><path d="m97.1692 73.4938v-1.6295h-3.259v1.6295" stroke="#5c3bfe"/><path d="m63.1719 32.6143h67.7259v7.36668h-67.7259z" stroke="#947eff"/></g><path d="m73.0684 27.3047h29.9996v16.9347h-29.9996z" fill="#5c3bfe"/><path d="m80.4727 29.7432h3.1381v12.0595h-3.1381z" fill="#ded8ff"/><path d="m86.4961 29.7432h3.1381v12.0595h-3.1381z" fill="#ded8ff"/><path d="m92.5156 29.7432h3.1381v12.0595h-3.1381z" fill="#ded8ff"/><path d="m160.898 17.3428h20.8321v20.8321h-20.8321z" fill="#3922a9"/><path d="m181.73 17.3428h20.8321v20.8321h-20.8321z" fill="#5c3bfe"/><path d="m202.557 17.3428h20.8321v20.8321h-20.8321z" fill="#947eff"/><path d="m223.395 17.3428h20.8321v20.8321h-20.8321z" fill="#ded8ff"/></svg>