<svg fill="none" height="210" viewBox="0 0 360 210" width="360" xmlns="http://www.w3.org/2000/svg"><path d="m342.857 30.2207 3.655 6.6827 6.683 3.6549-6.683 3.6549-3.655 6.6827-3.655-6.6827-6.682-3.6549 6.682-3.6549z" fill="#8870fc"/><path d="m346.512 36.9034-3.655-6.6827v20.6752l3.655-6.6827 6.683-3.6549z" fill="#3922a9"/><path d="m217.826 99.7505c-3.468.2317-6.426 1.4195-8.272 2.5925-.08.051-.109.149-.074.238l8.316 21.092c.071.18.339.156.399-.027 2.978-9.037 13.99 1.354 20.636-3.271 7.001-4.873 11.199-13.733 10.987-19.093-.005-.129-.292-.03-.376.066-7.788 8.875-19.835-2.3848-31.616-1.5975z" fill="#8870fc"/><path d="m219.137 139.566-8.599-21.809m0 0-8.599-21.8084c1.775-1.1602 4.656-2.3596 8.058-2.6519 11.993-1.031 24.589 10.3833 32.32 1.1564 1.649-1.9676-3.812 14.4619-10.967 19.4409-6.785 4.722-18.12-6.206-20.812 3.863z" stroke="#3922a9" stroke-linecap="round" stroke-linejoin="round"/><circle cx="196.708" cy="86.9991" fill="#ded8ff" r="2.2432"/><path d="m111.502 8.58789h72.3001v128.082h-72.3001z" fill="#5c3bfe"/><g stroke-width=".5"><path d="m11.7519 41.8105h-5.42573v128.0825h72.30013v-5.449" stroke="#ded8ff"/><path d="m6.42261 47.1387h-5.42261v128.0823h72.3001v-5.43" stroke="#ded8ff"/><path d="m17.0977 47.3887h61.4167v21.0805h-61.4167z" stroke="#ded8ff"/><path d="m17.0977 79.1953h61.4167v21.0805h-61.4167z" stroke="#ded8ff"/><path d="m17.0977 111h13.1394v21.0805h-13.1394z" stroke="#ded8ff"/><path d="m15.8145 141.746h26.1548v8.55717h-26.1548z" stroke="#947eff"/></g><path d="m52.9121 141.496h26.6548v9.05717h-26.6548z" fill="#947eff"/><path d="m50.0078 139.176h32.4615v13.6991h-32.4615z" stroke="#5c3bfe" stroke-width=".5"/><path d="m33.2383 112.974h40.8862v2.58899h-40.8862z" fill="#3922a9"/><path d="m33.2383 116.931h23.9146v2.58899h-23.9146z" fill="#947eff"/><path d="m119.758 15.2959h26.6368v6.23153h-26.6368z" fill="#fff"/><path d="m119.758 59.3311h39.2276v7.99539h-39.2276z" fill="#fff"/><path d="m119.758 69.916h28.266v4.0265h-28.266z" fill="#ded8ff"/><path d="m120.008 80.0664h6.10003v9.38332h-6.10003z" stroke="#ded8ff" stroke-width=".5"/><path d="m129.143 81.7227h46.9653v2.64953h-46.9653z" fill="#3922a9"/><path d="m129.143 85.8076h27.2023v2.64953h-27.2023z" fill="#8870fc"/><path d="m120.008 94.2334h6.10003v9.38332h-6.10003z" stroke="#ded8ff" stroke-width=".5"/><path d="m129.143 95.8906h46.9653v2.64953h-46.9653z" fill="#3922a9"/><path d="m129.143 99.9756h27.2023v2.64953h-27.2023z" fill="#8870fc"/><path d="m120.008 108.4h6.10003v9.38332h-6.10003z" stroke="#ded8ff" stroke-width=".5"/><path d="m129.143 110.057h46.9653v2.64953h-46.9653z" fill="#3922a9"/><path d="m129.143 114.143h27.2023v2.64953h-27.2023z" fill="#8870fc"/><path d="m120.006 122.566h6.10003v9.38332h-6.10003z" stroke="#ded8ff" stroke-width=".5"/><path d="m129.143 124.224h46.9653v2.64953h-46.9653z" fill="#3922a9"/><path d="m129.143 128.309h27.2023v2.64953h-27.2023z" fill="#8870fc"/><path d="m120.008 28.9121h55.849v25.2033h-55.849z" stroke="#ded8ff" stroke-width=".5"/><path d="m168.883 15.0088h7.21966v.576289h-7.21966z" fill="#fff"/><path d="m168.883 18.125h7.21966v.576289h-7.21966z" fill="#fff"/><path d="m168.883 21.2402h7.21966v.576289h-7.21966z" fill="#fff"/><circle cx="172.658" cy="63.3304" fill="#3922a9" r="3.44663"/><path d="m11.9062 36.7344h71.8001v127.582h-71.8001z" stroke="#8870fc" stroke-width=".5"/><path d="m82.6777 146.237c5.1707.63 15.5847-3.322 15.8755-24.165.3635-26.0538 4.2418-34.8642 11.8768-35.997m0 0-3.446-1.4647m3.446 1.4647-2.446 3.268" stroke="#5c3bfe"/><circle cx="82.4715" cy="146.025" fill="#5c3bfe" r="2.04575"/><path d="m165.984 152.036h140.698v33.1908h-140.698z" stroke="#ded8ff"/><path d="m166.646 162.149c2.265-.364 7.584.654 10.733 7.638 2.031 4.506 5.318 5.815 8.31 5.277 5.643-1.015 6.336-9.314 11.472-11.862 1.299-.644 2.88-1.053 4.786-1.053" stroke="#8870fc"/><path d="m237.249 162.149c-2.266-.364-7.585.654-10.733 7.638-2.032 4.506-5.318 5.815-8.31 5.277-5.643-1.015-6.336-9.314-11.473-11.862-1.298-.644-2.879-1.053-4.786-1.053" stroke="#8870fc"/><path d="m235.421 162.149c2.266-.364 7.585.654 10.733 7.638 2.031 4.506 5.318 5.815 8.31 5.277 5.643-1.015 6.336-9.314 11.473-11.862 1.298-.644 2.879-1.053 4.786-1.053" stroke="#8870fc"/><path d="m306.024 162.149c-2.266-.364-7.584.654-10.733 7.638-2.031 4.506-5.318 5.815-8.31 5.277-5.643-1.015-6.336-9.314-11.472-11.862-1.299-.644-2.88-1.053-4.786-1.053" stroke="#8870fc"/><path d="m306.531 152.036h51.969v33.1908h-51.969z" stroke="#ded8ff"/><g stroke="#8870fc"><circle cx="320.179" cy="164.476" r="2.07589"/><circle cx="328.404" cy="164.476" r="2.07589"/><circle cx="336.633" cy="164.476" r="2.07589"/><circle cx="344.857" cy="164.476" r="2.07589"/><circle cx="320.179" cy="172.786" r="2.07589"/><circle cx="328.404" cy="172.786" r="2.07589"/><circle cx="336.633" cy="172.786" r="2.07589"/><circle cx="344.857" cy="172.786" r="2.07589"/></g><path d="m300.414 118.727h33.4587v33.4587h-33.4587z" stroke="#ded8ff"/><circle cx="317.145" cy="135.456" fill="#5c3bfe" r="11.9595"/><circle cx="317.143" cy="135.457" fill="#fff" r="6.58189" transform="matrix(.70710678 .70710678 -.70710678 .70710678 188.671597 -184.579529)"/><path d="m312.487 140.112c2.57 2.57 6.738 2.57 9.308 0s2.57-6.738 0-9.308z" fill="#ded8ff"/><path d="m-.5.5h33.4587v33.4587h-33.4587z" stroke="#ded8ff" transform="matrix(-1 0 0 1 300.061 118.226)"/><path d="m290.351 131.868-6.522 10.79-6.521-10.79z" stroke="#5c3bfe"/><path d="m65.5547 0v4.87724" stroke="#5c3bfe"/><path d="m71.8945 2.43848-3.4487 3.44872" stroke="#ded8ff"/><path d="m74.123 8.58789h-4.8772" stroke="#cec4ff"/><path d="m59.2148 2.43848 3.4488 3.44872" stroke="#7d62fe"/><path d="m56.9844 8.58789h4.8772" stroke="#8d76fe"/><path d="m65.5547 17.1758v-4.8773" stroke="#ad9dfe"/><path d="m71.8945 14.7373-3.4487-3.4487" stroke="#beb1ff"/><path d="m59.2148 14.7373 3.4488-3.4487" stroke="#9d89fe"/><circle cx="116.986" cy="183.832" r="25.2552" stroke="#3922a9"/><circle cx="116.984" cy="183.833" r="17.3569" stroke="#8870fc"/><circle cx="116.987" cy="183.834" r="8.77172" stroke="#ded8ff"/><path d="m288.715 49.502h12.3494v69.0438h-12.3494z" fill="#8870fc"/><path d="m294.889 49.502v69.044" stroke="#3922a9" stroke-width=".3"/><path d="m301.062 49.502h12.3494v69.0438h-12.3494z" fill="#3922a9"/><path d="m301.063 49.502h12.347l-12.348-22.7911z" fill="#ded8ff"/><path d="m301.062 49.502h-12.347l12.347-22.7911z" fill="#fff"/><path d="m301.062 26.7109v11.3956h-6.173z" fill="#3922a9"/><path d="m301.062 26.7109.001 11.3956h6.173z" fill="#04020e"/><path d="m307.24 49.5029v69.0441" stroke="#8870fc" stroke-width=".3"/><path d="m228.072 26.9609h38.2765v48.2067h-38.2765z" stroke="#5c3bfe" stroke-width=".5"/><path d="m230.859 27.1309v47.757" stroke="#5c3bfe" stroke-width=".5"/><path d="m259.678 27.1309v47.757" stroke="#5c3bfe" stroke-width=".5"/><path d="m261.303 27.1309v47.757" stroke="#5c3bfe" stroke-width=".5"/><path d="m262.928 27.1309v47.757" stroke="#5c3bfe" stroke-width=".5"/><path d="m264.551 27.1309v47.757" stroke="#5c3bfe" stroke-width=".5"/><path d="m234.793 33.1523h14.7948v7.40658h-14.7948z" fill="#8870fc"/><path d="m234.793 44.0889h21.128v1.93818h-21.128z" fill="#ded8ff"/><path d="m234.793 49.5586h21.128v1.93818h-21.128z" fill="#ded8ff"/><path d="m234.793 55.0283h21.128v1.93818h-21.128z" fill="#ded8ff"/><path d="m234.793 60.4951h21.128v1.93818h-21.128z" fill="#ded8ff"/><path d="m234.793 65.9648h21.128v1.93818h-21.128z" fill="#ded8ff"/><path d="m203.681 34.542-2.031 3.7126-3.712 2.0305 3.712 2.0305 2.031 3.7126 2.03-3.7126 3.713-2.0305-3.713-2.0305z" fill="#8870fc"/><path d="m201.649 38.2546 2.031-3.7126v11.4862l-2.031-3.7126-3.712-2.0305z" fill="#3922a9"/></svg>