<svg fill="none" height="182" viewBox="0 0 361 182" width="361" xmlns="http://www.w3.org/2000/svg"><rect fill="#5c3bfe" height="35.9755" rx="17.9878" width="251.737" x="21.9395" y="145.525"/><path d="m255.56 154.14h-173.1518m173.1518 8.906h-173.1518m173.1518 9.835h-173.1518" opacity=".5" stroke="#fff"/><path d="m43.5221 143.267 36.6302-70.101-.0001 70.101.0001 25.491h-12.7409z" fill="#ded8ff"/><path d="m116.783 143.267-36.6307-70.101.0002 70.101-.0002 25.491h12.741z" fill="#8870fc"/><path d="m78.5586 69.9795h3.18505v66.9144h-3.18505z" fill="#3922a9"/><path d="m85.5214 141.675c0 2.967-2.4046 5.372-5.3701 5.372-2.9654 0-5.3701-2.405-5.3701-5.372 0-2.968 2.4047-5.373 5.3701-5.373 2.9655 0 5.3701 2.405 5.3701 5.373z" stroke="#3922a9" stroke-width="2"/><path d="m62.6387 168.758h17.5188v12.7456h-17.5188z" fill="#fff"/><path d="m80.1523 168.758h17.5188v12.7456h-17.5188z" fill="#ded8ff"/><path d="m88.4727 168.912h1.79801v12.5914h-1.79801z" fill="#5c3bfe"/><path d="m70.4922 168.912h1.79801v12.5914h-1.79801z" fill="#8870fc"/><ellipse cx="255.697" cy="163.513" fill="#fff" rx="14.3849" ry="14.3902"/><ellipse cx="18.3432" cy="136.533" fill="#5c3bfe" rx="5.39403" ry="5.39633"/><ellipse cx="31.8259" cy="115.846" fill="#5c3bfe" rx="2.69701" ry="2.69816"/><path d="m137.019 37.5967 5.722 10.4653 10.461 5.7237-10.461 5.7236-5.722 10.4653-5.722-10.4653-10.461-5.7236 10.461-5.7237z" fill="#8870fc"/><path d="m142.737 48.063-5.721-10.4653v32.3779l5.721-10.4653 10.462-5.7237z" fill="#3922a9"/><path d="m120.836 73.5742-3.179 5.8141-5.812 3.1798 5.812 3.1798 3.179 5.8141 3.178-5.8141 5.812-3.1798-5.812-3.1798z" fill="#8870fc"/><path d="m117.657 79.3883 3.179-5.8141v17.9878l-3.179-5.8141-5.811-3.1798z" fill="#3922a9"/><ellipse cx="248.965" cy="48.8096" fill="#8870fc" rx="36.6038" ry="36.6172"/><path d="m208.405 40.5747c4.546-22.4088 26.391-36.88764 48.791-32.33943" stroke="#ded8ff" stroke-width=".5"/><path d="m282.217 45.7451c0 3.9844-.636 7.8202-1.812 11.4112m-34.792 25.206c14.052 0 26.254-7.9208 32.389-19.5425" stroke="#fff" stroke-width=".5"/><g stroke="#3922a9"><path d="m274.31 19.8447c-14.645 2.0734-46.243 15.7281-55.474 53.7599"/><path d="m279.107 24.71c-2.072 14.6505-15.722 46.2599-53.74 55.4941"/><path d="m135.719 120.765h14.0257v14.0321h-14.0257z" fill="#fff"/><path d="m204.496 120.765h14.0257v14.0321h-14.0257z" fill="#fff"/></g><path d="m211.951 120.263c0-19.241-15.592-34.8382-34.825-34.8382s-34.825 15.5972-34.825 34.8382" stroke="#5c3bfe" stroke-dasharray="4 4"/><path d="m170.111 78.4102h14.0257v14.0321h-14.0257z" fill="#fff" stroke="#3922a9"/><path d="m191.649 121.858c0 8.026-6.504 14.533-14.527 14.533-8.024 0-14.528-6.507-14.528-14.533 0-8.027 6.504-14.534 14.528-14.534 8.023 0 14.527 6.507 14.527 14.534z" stroke="#3922a9"/><path d="m187.04 121.858c0 5.48-4.441 9.923-9.92 9.923-5.478 0-9.919-4.443-9.919-9.923 0-5.481 4.441-9.923 9.919-9.923 5.479 0 9.92 4.442 9.92 9.923z" stroke="#8870fc"/><path d="m182.028 121.86c0 2.713-2.198 4.912-4.909 4.912-2.712 0-4.91-2.199-4.91-4.912s2.198-4.912 4.91-4.912c2.711 0 4.909 2.199 4.909 4.912z" stroke="#ded8ff"/><path d="m316 51.8335c0-9.8492 7.982-17.8335 17.827-17.8335 9.846 0 17.827 7.9843 17.827 17.8335" stroke="#ded8ff"/><path d="m321.469 51.833c0 6.8288 5.534 12.3646 12.36 12.3646 6.827 0 12.36-5.5358 12.36-12.3646" stroke="#8870fc"/><path d="m333.829 57.753c-3.268 0-5.917-2.6502-5.917-5.9199 0-3.2698 2.649-5.92 5.917-5.92s5.917 2.6502 5.917 5.92c0 3.2697-2.649 5.9199-5.917 5.9199z" stroke="#3922a9"/><path d="m16.1566 87.7861c0-4.1871-3.3929-7.5815-7.57831-7.5815-4.18537 0-7.57829 3.3944-7.57829 7.5815" stroke="#5c3bfe"/><path d="m31.3128 87.7861c0-4.1871-3.3929-7.5815-7.5783-7.5815-4.1853 0-7.5782 3.3944-7.5783 7.5815" stroke="#5c3bfe"/><path d="m46.4691 87.7861c0-4.1871-3.3929-7.5815-7.5783-7.5815s-7.5783 3.3944-7.5783 7.5815" stroke="#5c3bfe"/><path d="m51.4222 48.8105c0 4.1872-3.3929 7.5816-7.5783 7.5816s-7.5783-3.3944-7.5783-7.5816" stroke="#947eff"/><path d="m66.5785 48.8105c0 4.1872-3.393 7.5816-7.5783 7.5816-4.1854 0-7.5783-3.3944-7.5783-7.5816" stroke="#947eff"/><path d="m81.7386 48.8105c0 4.1872-3.3929 7.5816-7.5783 7.5816s-7.5783-3.3944-7.5783-7.5816" stroke="#947eff"/><path d="m360.931 180.932v-98.932l-65.931 98.932z" fill="#947eff"/><path d="m351.928 168.582v-54.12l-36.067 54.12z" fill="#fff"/><g fill="#3922a9"><path d="m0 0h5.52006v3.0416h-5.52006z" transform="matrix(.81493 .579572 -.579559 .814921 349.352 95.832)"/><path d="m0 0h5.52006v3.0416h-5.52006z" transform="matrix(.814815 .579733 -.579398 .815036 341.668 107.398)"/><path d="m0 0h5.52006v3.0416h-5.52006z" transform="matrix(.814815 .579733 -.579398 .815036 333.992 118.963)"/><path d="m0 0h5.52006v3.0416h-5.52006z" transform="matrix(.814831 .579711 -.579421 .815019 326.309 130.524)"/><path d="m0 0h5.52006v3.0416h-5.52006z" transform="matrix(.814831 .579711 -.579421 .815019 318.631 142.091)"/><path d="m0 0h5.52006v3.0416h-5.52006z" transform="matrix(.814831 .579711 -.579421 .815019 310.947 153.655)"/><path d="m0 0h5.52006v3.0416h-5.52006z" transform="matrix(.814831 .579711 -.579421 .815019 303.268 165.219)"/></g><path d="m267 97.2853v33.9637 2.426l7.275-7.278h33.951v-29.1117z" stroke="#ded8ff"/><path d="m275.625 104.661h23.982m-23.982 6.92h23.982m-23.982 7.382h23.982" stroke="#8870fc"/></svg>