<svg width="453" height="453" viewBox="0 0 453 453" fill="none" xmlns="http://www.w3.org/2000/svg">
<path d="M76.736 188.504C73.928 188.504 71.624 187.712 69.824 186.128C68.024 184.544 67.124 182.42 67.124 179.756V162.8H72.056V179.36C72.056 180.68 72.428 181.724 73.172 182.492C73.94 183.26 75.128 183.644 76.736 183.644C78.344 183.644 79.52 183.26 80.264 182.492C81.032 181.724 81.416 180.68 81.416 179.36V162.8H86.384V179.756C86.384 182.42 85.484 184.544 83.684 186.128C81.884 187.712 79.568 188.504 76.736 188.504ZM109.661 188H104.009L99.1128 179.792L94.2168 188H88.6008L96.3048 175.076L88.9968 162.8H94.6128L99.1128 170.36L103.613 162.8H109.229L101.921 175.04L109.661 188Z" fill="white"/>
<path d="M214.736 250.504C211.928 250.504 209.624 249.712 207.824 248.128C206.024 246.544 205.124 244.42 205.124 241.756V224.8H210.056V241.36C210.056 242.68 210.428 243.724 211.172 244.492C211.94 245.26 213.128 245.644 214.736 245.644C216.344 245.644 217.52 245.26 218.264 244.492C219.032 243.724 219.416 242.68 219.416 241.36V224.8H224.384V241.756C224.384 244.42 223.484 246.544 221.684 248.128C219.884 249.712 217.568 250.504 214.736 250.504ZM228.86 224.8H233.828V250H228.86V224.8Z" fill="white"/>
<circle cx="226.5" cy="226.5" r="226" stroke="white"/>
<circle cx="315.5" cy="226.5" r="137" stroke="white"/>
<path d="M139.288 80.104C138.52 80.8293 137.517 81.192 136.28 81.192C135.043 81.192 134.04 80.8293 133.272 80.104C132.504 79.3787 132.12 78.408 132.12 77.192V69.8H133.24V77.192C133.24 78.088 133.507 78.7973 134.04 79.32C134.573 79.8427 135.32 80.104 136.28 80.104C137.24 80.104 137.987 79.8427 138.52 79.32C139.053 78.7973 139.32 78.088 139.32 77.192V69.8H140.44V77.192C140.44 78.408 140.056 79.3787 139.288 80.104ZM150.366 81H149.086L146.046 76.216L143.006 81H141.726L145.406 75.224L141.966 69.8H143.23L146.046 74.216L148.862 69.8H150.126L146.686 75.224L150.366 81ZM162.848 81L160.224 76.52H157.088V81H155.968V69.8H160.448C161.376 69.8 162.165 70.1307 162.816 70.792C163.477 71.4427 163.808 72.232 163.808 73.16C163.808 73.9173 163.578 74.5947 163.12 75.192C162.672 75.7787 162.096 76.1733 161.392 76.376L164.128 81H162.848ZM157.088 70.856V75.464H160.448C161.066 75.464 161.594 75.24 162.032 74.792C162.469 74.3333 162.688 73.7893 162.688 73.16C162.688 72.52 162.469 71.976 162.032 71.528C161.594 71.08 161.066 70.856 160.448 70.856H157.088ZM168.863 72.808C170.047 72.808 171.002 73.2293 171.727 74.072C172.463 74.904 172.831 75.8907 172.831 77.032C172.831 77.1493 172.82 77.3147 172.799 77.528H165.775C165.882 78.3387 166.223 78.984 166.799 79.464C167.386 79.9333 168.106 80.168 168.959 80.168C169.567 80.168 170.09 80.0453 170.527 79.8C170.975 79.544 171.311 79.2133 171.535 78.808L172.463 79.352C172.111 79.9173 171.631 80.3653 171.023 80.696C170.415 81.0267 169.722 81.192 168.943 81.192C167.684 81.192 166.66 80.7973 165.871 80.008C165.082 79.2187 164.687 78.216 164.687 77C164.687 75.8053 165.076 74.808 165.855 74.008C166.634 73.208 167.636 72.808 168.863 72.808ZM168.863 73.832C168.031 73.832 167.332 74.0827 166.767 74.584C166.212 75.0747 165.882 75.7147 165.775 76.504H171.743C171.636 75.6613 171.311 75.0053 170.767 74.536C170.223 74.0667 169.588 73.832 168.863 73.832ZM175.03 75.096C175.03 75.4587 175.19 75.7467 175.51 75.96C175.83 76.1733 176.219 76.3387 176.678 76.456C177.137 76.5733 177.595 76.7067 178.054 76.856C178.513 76.9947 178.902 77.2347 179.222 77.576C179.542 77.9067 179.702 78.344 179.702 78.888C179.702 79.5707 179.43 80.1253 178.886 80.552C178.353 80.9787 177.659 81.192 176.806 81.192C176.038 81.192 175.382 81.0213 174.838 80.68C174.305 80.3387 173.931 79.896 173.718 79.352L174.614 78.824C174.763 79.24 175.03 79.5707 175.414 79.816C175.809 80.0507 176.273 80.168 176.806 80.168C177.329 80.168 177.766 80.0667 178.118 79.864C178.47 79.6507 178.646 79.3253 178.646 78.888C178.646 78.5253 178.486 78.2373 178.166 78.024C177.846 77.8107 177.457 77.6453 176.998 77.528C176.539 77.4107 176.081 77.2827 175.622 77.144C175.163 76.9947 174.774 76.7547 174.454 76.424C174.134 76.0827 173.974 75.64 173.974 75.096C173.974 74.4453 174.23 73.9013 174.742 73.464C175.265 73.0267 175.921 72.808 176.71 72.808C177.361 72.808 177.931 72.9573 178.422 73.256C178.913 73.544 179.275 73.9387 179.51 74.44L178.63 74.952C178.321 74.2053 177.681 73.832 176.71 73.832C176.251 73.832 175.857 73.944 175.526 74.168C175.195 74.3813 175.03 74.6907 175.03 75.096ZM184.925 72.808C186.109 72.808 187.064 73.2293 187.789 74.072C188.525 74.904 188.893 75.8907 188.893 77.032C188.893 77.1493 188.883 77.3147 188.861 77.528H181.837C181.944 78.3387 182.285 78.984 182.861 79.464C183.448 79.9333 184.168 80.168 185.021 80.168C185.629 80.168 186.152 80.0453 186.589 79.8C187.037 79.544 187.373 79.2133 187.597 78.808L188.525 79.352C188.173 79.9173 187.693 80.3653 187.085 80.696C186.477 81.0267 185.784 81.192 185.005 81.192C183.747 81.192 182.723 80.7973 181.933 80.008C181.144 79.2187 180.749 78.216 180.749 77C180.749 75.8053 181.139 74.808 181.917 74.008C182.696 73.208 183.699 72.808 184.925 72.808ZM184.925 73.832C184.093 73.832 183.395 74.0827 182.829 74.584C182.275 75.0747 181.944 75.7147 181.837 76.504H187.805C187.699 75.6613 187.373 75.0053 186.829 74.536C186.285 74.0667 185.651 73.832 184.925 73.832ZM197.453 73H198.509V81H197.453V79.432C196.717 80.6053 195.64 81.192 194.221 81.192C193.08 81.192 192.104 80.7867 191.293 79.976C190.493 79.1653 190.093 78.1733 190.093 77C190.093 75.8267 190.493 74.8347 191.293 74.024C192.104 73.2133 193.08 72.808 194.221 72.808C195.64 72.808 196.717 73.3947 197.453 74.568V73ZM192.061 79.256C192.669 79.864 193.416 80.168 194.301 80.168C195.186 80.168 195.933 79.864 196.541 79.256C197.149 78.6373 197.453 77.8853 197.453 77C197.453 76.1147 197.149 75.368 196.541 74.76C195.933 74.1413 195.186 73.832 194.301 73.832C193.416 73.832 192.669 74.1413 192.061 74.76C191.453 75.368 191.149 76.1147 191.149 77C191.149 77.8853 191.453 78.6373 192.061 79.256ZM201.801 74.328C202.292 73.3573 203.134 72.872 204.329 72.872V73.896C203.604 73.896 203.001 74.1093 202.521 74.536C202.041 74.9627 201.801 75.6347 201.801 76.552V81H200.745V73H201.801V74.328ZM209.02 81.192C207.815 81.192 206.812 80.792 206.012 79.992C205.212 79.1813 204.812 78.184 204.812 77C204.812 75.816 205.212 74.824 206.012 74.024C206.812 73.2133 207.815 72.808 209.02 72.808C209.809 72.808 210.519 73 211.148 73.384C211.777 73.7573 212.236 74.264 212.524 74.904L211.66 75.4C211.447 74.92 211.1 74.5413 210.62 74.264C210.151 73.976 209.617 73.832 209.02 73.832C208.135 73.832 207.388 74.1413 206.78 74.76C206.172 75.368 205.868 76.1147 205.868 77C205.868 77.8853 206.172 78.6373 206.78 79.256C207.388 79.864 208.135 80.168 209.02 80.168C209.617 80.168 210.151 80.0293 210.62 79.752C211.089 79.464 211.457 79.08 211.724 78.6L212.604 79.112C212.273 79.752 211.788 80.2587 211.148 80.632C210.508 81.0053 209.799 81.192 209.02 81.192ZM217.864 72.808C218.835 72.808 219.597 73.1067 220.152 73.704C220.717 74.2907 221 75.0853 221 76.088V81H219.944V76.088C219.944 75.3733 219.752 74.8187 219.368 74.424C218.995 74.0293 218.461 73.832 217.768 73.832C217 73.832 216.376 74.0773 215.896 74.568C215.416 75.048 215.176 75.7947 215.176 76.808V81H214.12V69.8H215.176V74.248C215.773 73.288 216.669 72.808 217.864 72.808Z" fill="white"/>
<path d="M73.288 282.104C72.52 282.829 71.5173 283.192 70.28 283.192C69.0427 283.192 68.04 282.829 67.272 282.104C66.504 281.379 66.12 280.408 66.12 279.192V271.8H67.24V279.192C67.24 280.088 67.5067 280.797 68.04 281.32C68.5733 281.843 69.32 282.104 70.28 282.104C71.24 282.104 71.9867 281.843 72.52 281.32C73.0533 280.797 73.32 280.088 73.32 279.192V271.8H74.44V279.192C74.44 280.408 74.056 281.379 73.288 282.104ZM84.3663 283H83.0863L80.0463 278.216L77.0063 283H75.7263L79.4062 277.224L75.9663 271.8H77.2303L80.0463 276.216L82.8623 271.8H84.1263L80.6863 277.224L84.3663 283ZM94.2875 271.8C95.8128 271.8 97.0715 272.344 98.0635 273.432C99.0662 274.509 99.5675 275.832 99.5675 277.4C99.5675 278.968 99.0662 280.296 98.0635 281.384C97.0715 282.461 95.8128 283 94.2875 283H89.9675V271.8H94.2875ZM94.2875 281.944C95.5142 281.944 96.5168 281.507 97.2955 280.632C98.0848 279.757 98.4795 278.68 98.4795 277.4C98.4795 276.12 98.0848 275.043 97.2955 274.168C96.5168 273.293 95.5142 272.856 94.2875 272.856H91.0875V281.944H94.2875ZM105.019 274.808C106.203 274.808 107.158 275.229 107.883 276.072C108.619 276.904 108.987 277.891 108.987 279.032C108.987 279.149 108.976 279.315 108.955 279.528H101.931C102.038 280.339 102.379 280.984 102.955 281.464C103.542 281.933 104.262 282.168 105.115 282.168C105.723 282.168 106.246 282.045 106.683 281.8C107.131 281.544 107.467 281.213 107.691 280.808L108.619 281.352C108.267 281.917 107.787 282.365 107.179 282.696C106.571 283.027 105.878 283.192 105.099 283.192C103.84 283.192 102.816 282.797 102.027 282.008C101.238 281.219 100.843 280.216 100.843 279C100.843 277.805 101.232 276.808 102.011 276.008C102.79 275.208 103.792 274.808 105.019 274.808ZM105.019 275.832C104.187 275.832 103.488 276.083 102.923 276.584C102.368 277.075 102.038 277.715 101.931 278.504H107.899C107.792 277.661 107.467 277.005 106.923 276.536C106.379 276.067 105.744 275.832 105.019 275.832ZM111.186 277.096C111.186 277.459 111.346 277.747 111.666 277.96C111.986 278.173 112.376 278.339 112.834 278.456C113.293 278.573 113.752 278.707 114.21 278.856C114.669 278.995 115.058 279.235 115.378 279.576C115.698 279.907 115.858 280.344 115.858 280.888C115.858 281.571 115.586 282.125 115.042 282.552C114.509 282.979 113.816 283.192 112.962 283.192C112.194 283.192 111.538 283.021 110.994 282.68C110.461 282.339 110.088 281.896 109.874 281.352L110.77 280.824C110.92 281.24 111.186 281.571 111.57 281.816C111.965 282.051 112.429 282.168 112.962 282.168C113.485 282.168 113.922 282.067 114.274 281.864C114.626 281.651 114.802 281.325 114.802 280.888C114.802 280.525 114.642 280.237 114.322 280.024C114.002 279.811 113.613 279.645 113.154 279.528C112.696 279.411 112.237 279.283 111.778 279.144C111.32 278.995 110.93 278.755 110.61 278.424C110.29 278.083 110.13 277.64 110.13 277.096C110.13 276.445 110.386 275.901 110.898 275.464C111.421 275.027 112.077 274.808 112.866 274.808C113.517 274.808 114.088 274.957 114.578 275.256C115.069 275.544 115.432 275.939 115.666 276.44L114.786 276.952C114.477 276.205 113.837 275.832 112.866 275.832C112.408 275.832 112.013 275.944 111.682 276.168C111.352 276.381 111.186 276.691 111.186 277.096ZM118.614 273.08C118.465 273.229 118.283 273.304 118.07 273.304C117.857 273.304 117.675 273.229 117.526 273.08C117.377 272.931 117.302 272.749 117.302 272.536C117.302 272.323 117.377 272.141 117.526 271.992C117.675 271.843 117.857 271.768 118.07 271.768C118.283 271.768 118.465 271.843 118.614 271.992C118.763 272.141 118.838 272.323 118.838 272.536C118.838 272.749 118.763 272.931 118.614 273.08ZM117.542 283V275H118.598V283H117.542ZM127.719 275H128.775V282.68C128.775 283.832 128.38 284.739 127.591 285.4C126.801 286.061 125.857 286.392 124.759 286.392C122.881 286.392 121.617 285.741 120.967 284.44L121.895 283.912C122.375 284.883 123.329 285.368 124.759 285.368C125.676 285.368 126.396 285.123 126.919 284.632C127.452 284.152 127.719 283.501 127.719 282.68V281.432C126.983 282.605 125.905 283.192 124.487 283.192C123.345 283.192 122.369 282.787 121.559 281.976C120.759 281.165 120.359 280.173 120.359 279C120.359 277.827 120.759 276.835 121.559 276.024C122.369 275.213 123.345 274.808 124.487 274.808C125.905 274.808 126.983 275.395 127.719 276.568V275ZM122.327 281.256C122.935 281.864 123.681 282.168 124.567 282.168C125.452 282.168 126.199 281.864 126.807 281.256C127.415 280.637 127.719 279.885 127.719 279C127.719 278.115 127.415 277.368 126.807 276.76C126.199 276.141 125.452 275.832 124.567 275.832C123.681 275.832 122.935 276.141 122.327 276.76C121.719 277.368 121.415 278.115 121.415 279C121.415 279.885 121.719 280.637 122.327 281.256ZM134.755 274.808C135.725 274.808 136.488 275.107 137.043 275.704C137.608 276.291 137.891 277.085 137.891 278.088V283H136.835V278.088C136.835 277.373 136.643 276.819 136.259 276.424C135.885 276.029 135.352 275.832 134.659 275.832C133.891 275.832 133.267 276.077 132.787 276.568C132.307 277.048 132.067 277.795 132.067 278.808V283H131.011V275H132.067V276.248C132.664 275.288 133.56 274.808 134.755 274.808Z" fill="white"/>
<path d="M201.28 403.8H202.4V415H201.28V403.8ZM212.424 415L211.384 412.248H206.072L205.032 415H203.848L208.152 403.8H209.304L213.608 415H212.424ZM206.472 411.192H210.984L208.728 405.192L206.472 411.192Z" fill="white"/>
<path d="M333.288 171.104C332.52 171.829 331.517 172.192 330.28 172.192C329.043 172.192 328.04 171.829 327.272 171.104C326.504 170.379 326.12 169.408 326.12 168.192V160.8H327.24V168.192C327.24 169.088 327.507 169.797 328.04 170.32C328.573 170.843 329.32 171.104 330.28 171.104C331.24 171.104 331.987 170.843 332.52 170.32C333.053 169.797 333.32 169.088 333.32 168.192V160.8H334.44V168.192C334.44 169.408 334.056 170.379 333.288 171.104ZM336.843 160.8H337.963V172H336.843V160.8ZM348.85 160.8C350.375 160.8 351.634 161.344 352.626 162.432C353.629 163.509 354.13 164.832 354.13 166.4C354.13 167.968 353.629 169.296 352.626 170.384C351.634 171.461 350.375 172 348.85 172H344.53V160.8H348.85ZM348.85 170.944C350.077 170.944 351.079 170.507 351.858 169.632C352.647 168.757 353.042 167.68 353.042 166.4C353.042 165.12 352.647 164.043 351.858 163.168C351.079 162.293 350.077 161.856 348.85 161.856H345.65V170.944H348.85ZM359.582 163.808C360.766 163.808 361.72 164.229 362.446 165.072C363.182 165.904 363.55 166.891 363.55 168.032C363.55 168.149 363.539 168.315 363.518 168.528H356.494C356.6 169.339 356.942 169.984 357.518 170.464C358.104 170.933 358.824 171.168 359.678 171.168C360.286 171.168 360.808 171.045 361.246 170.8C361.694 170.544 362.03 170.213 362.254 169.808L363.182 170.352C362.83 170.917 362.35 171.365 361.742 171.696C361.134 172.027 360.44 172.192 359.662 172.192C358.403 172.192 357.379 171.797 356.59 171.008C355.8 170.219 355.406 169.216 355.406 168C355.406 166.805 355.795 165.808 356.574 165.008C357.352 164.208 358.355 163.808 359.582 163.808ZM359.582 164.832C358.75 164.832 358.051 165.083 357.486 165.584C356.931 166.075 356.6 166.715 356.494 167.504H362.462C362.355 166.661 362.03 166.005 361.486 165.536C360.942 165.067 360.307 164.832 359.582 164.832ZM365.749 166.096C365.749 166.459 365.909 166.747 366.229 166.96C366.549 167.173 366.938 167.339 367.397 167.456C367.856 167.573 368.314 167.707 368.773 167.856C369.232 167.995 369.621 168.235 369.941 168.576C370.261 168.907 370.421 169.344 370.421 169.888C370.421 170.571 370.149 171.125 369.605 171.552C369.072 171.979 368.378 172.192 367.525 172.192C366.757 172.192 366.101 172.021 365.557 171.68C365.024 171.339 364.65 170.896 364.437 170.352L365.333 169.824C365.482 170.24 365.749 170.571 366.133 170.816C366.528 171.051 366.992 171.168 367.525 171.168C368.048 171.168 368.485 171.067 368.837 170.864C369.189 170.651 369.365 170.325 369.365 169.888C369.365 169.525 369.205 169.237 368.885 169.024C368.565 168.811 368.176 168.645 367.717 168.528C367.258 168.411 366.8 168.283 366.341 168.144C365.882 167.995 365.493 167.755 365.173 167.424C364.853 167.083 364.693 166.64 364.693 166.096C364.693 165.445 364.949 164.901 365.461 164.464C365.984 164.027 366.64 163.808 367.429 163.808C368.08 163.808 368.65 163.957 369.141 164.256C369.632 164.544 369.994 164.939 370.229 165.44L369.349 165.952C369.04 165.205 368.4 164.832 367.429 164.832C366.97 164.832 366.576 164.944 366.245 165.168C365.914 165.381 365.749 165.691 365.749 166.096ZM373.176 162.08C373.027 162.229 372.846 162.304 372.632 162.304C372.419 162.304 372.238 162.229 372.088 162.08C371.939 161.931 371.864 161.749 371.864 161.536C371.864 161.323 371.939 161.141 372.088 160.992C372.238 160.843 372.419 160.768 372.632 160.768C372.846 160.768 373.027 160.843 373.176 160.992C373.326 161.141 373.4 161.323 373.4 161.536C373.4 161.749 373.326 161.931 373.176 162.08ZM372.104 172V164H373.16V172H372.104ZM382.281 164H383.337V171.68C383.337 172.832 382.943 173.739 382.153 174.4C381.364 175.061 380.42 175.392 379.321 175.392C377.444 175.392 376.18 174.741 375.529 173.44L376.457 172.912C376.937 173.883 377.892 174.368 379.321 174.368C380.239 174.368 380.959 174.123 381.481 173.632C382.015 173.152 382.281 172.501 382.281 171.68V170.432C381.545 171.605 380.468 172.192 379.049 172.192C377.908 172.192 376.932 171.787 376.121 170.976C375.321 170.165 374.921 169.173 374.921 168C374.921 166.827 375.321 165.835 376.121 165.024C376.932 164.213 377.908 163.808 379.049 163.808C380.468 163.808 381.545 164.395 382.281 165.568V164ZM376.889 170.256C377.497 170.864 378.244 171.168 379.129 171.168C380.015 171.168 380.761 170.864 381.369 170.256C381.977 169.637 382.281 168.885 382.281 168C382.281 167.115 381.977 166.368 381.369 165.76C380.761 165.141 380.015 164.832 379.129 164.832C378.244 164.832 377.497 165.141 376.889 165.76C376.281 166.368 375.977 167.115 375.977 168C375.977 168.885 376.281 169.637 376.889 170.256ZM389.317 163.808C390.288 163.808 391.05 164.107 391.605 164.704C392.17 165.291 392.453 166.085 392.453 167.088V172H391.397V167.088C391.397 166.373 391.205 165.819 390.821 165.424C390.448 165.029 389.914 164.832 389.221 164.832C388.453 164.832 387.829 165.077 387.349 165.568C386.869 166.048 386.629 166.795 386.629 167.808V172H385.573V164H386.629V165.248C387.226 164.288 388.122 163.808 389.317 163.808Z" fill="white"/>
<path d="M294.28 229.8C295.283 229.8 296.12 230.136 296.792 230.808C297.464 231.48 297.8 232.317 297.8 233.32C297.8 234.323 297.464 235.16 296.792 235.832C296.12 236.504 295.283 236.84 294.28 236.84H291.4V241H290.28V229.8H294.28ZM294.28 235.784C294.973 235.784 295.544 235.555 295.992 235.096C296.451 234.627 296.68 234.035 296.68 233.32C296.68 232.605 296.451 232.019 295.992 231.56C295.544 231.091 294.973 230.856 294.28 230.856H291.4V235.784H294.28ZM300.457 234.328C300.948 233.357 301.791 232.872 302.985 232.872V233.896C302.26 233.896 301.657 234.109 301.177 234.536C300.697 234.963 300.457 235.635 300.457 236.552V241H299.401V233H300.457V234.328ZM310.652 239.992C309.841 240.792 308.849 241.192 307.676 241.192C306.503 241.192 305.505 240.792 304.684 239.992C303.873 239.181 303.468 238.184 303.468 237C303.468 235.816 303.873 234.824 304.684 234.024C305.505 233.213 306.503 232.808 307.676 232.808C308.849 232.808 309.841 233.213 310.652 234.024C311.473 234.824 311.884 235.816 311.884 237C311.884 238.184 311.473 239.181 310.652 239.992ZM305.436 239.256C306.044 239.864 306.791 240.168 307.676 240.168C308.561 240.168 309.308 239.864 309.916 239.256C310.524 238.637 310.828 237.885 310.828 237C310.828 236.115 310.524 235.368 309.916 234.76C309.308 234.141 308.561 233.832 307.676 233.832C306.791 233.832 306.044 234.141 305.436 234.76C304.828 235.368 304.524 236.115 304.524 237C304.524 237.885 304.828 238.637 305.436 239.256ZM317.735 234.024H315.431V238.872C315.431 239.309 315.516 239.624 315.687 239.816C315.858 239.997 316.114 240.093 316.455 240.104C316.796 240.104 317.223 240.093 317.735 240.072V241C316.615 241.171 315.772 241.091 315.207 240.76C314.652 240.429 314.375 239.8 314.375 238.872V234.024H312.695V233H314.375V231.08L315.431 230.76V233H317.735V234.024ZM325.715 239.992C324.904 240.792 323.912 241.192 322.739 241.192C321.565 241.192 320.568 240.792 319.747 239.992C318.936 239.181 318.531 238.184 318.531 237C318.531 235.816 318.936 234.824 319.747 234.024C320.568 233.213 321.565 232.808 322.739 232.808C323.912 232.808 324.904 233.213 325.715 234.024C326.536 234.824 326.947 235.816 326.947 237C326.947 238.184 326.536 239.181 325.715 239.992ZM320.499 239.256C321.107 239.864 321.853 240.168 322.739 240.168C323.624 240.168 324.371 239.864 324.979 239.256C325.587 238.637 325.891 237.885 325.891 237C325.891 236.115 325.587 235.368 324.979 234.76C324.371 234.141 323.624 233.832 322.739 233.832C321.853 233.832 321.107 234.141 320.499 234.76C319.891 235.368 319.587 236.115 319.587 237C319.587 237.885 319.891 238.637 320.499 239.256ZM332.798 234.024H330.494V238.872C330.494 239.309 330.579 239.624 330.75 239.816C330.92 239.997 331.176 240.093 331.518 240.104C331.859 240.104 332.286 240.093 332.798 240.072V241C331.678 241.171 330.835 241.091 330.27 240.76C329.715 240.429 329.438 239.8 329.438 238.872V234.024H327.758V233H329.438V231.08L330.494 230.76V233H332.798V234.024ZM340.474 233H341.594L338.17 241.736C337.86 242.525 337.418 243.144 336.842 243.592C336.276 244.051 335.642 244.253 334.938 244.2V243.208C335.898 243.315 336.628 242.76 337.13 241.544L337.338 241.048L333.754 233H334.874L337.882 239.704L340.474 233ZM347.158 232.808C348.299 232.808 349.27 233.213 350.07 234.024C350.881 234.835 351.286 235.827 351.286 237C351.286 238.173 350.881 239.165 350.07 239.976C349.27 240.787 348.299 241.192 347.158 241.192C345.739 241.192 344.662 240.605 343.926 239.432V244.2H342.87V233H343.926V234.568C344.662 233.395 345.739 232.808 347.158 232.808ZM344.838 239.256C345.446 239.864 346.193 240.168 347.078 240.168C347.963 240.168 348.71 239.864 349.318 239.256C349.926 238.637 350.23 237.885 350.23 237C350.23 236.115 349.926 235.368 349.318 234.76C348.71 234.141 347.963 233.832 347.078 233.832C346.193 233.832 345.446 234.141 344.838 234.76C344.23 235.368 343.926 236.115 343.926 237C343.926 237.885 344.23 238.637 344.838 239.256ZM354.114 231.08C353.965 231.229 353.783 231.304 353.57 231.304C353.357 231.304 353.175 231.229 353.026 231.08C352.877 230.931 352.802 230.749 352.802 230.536C352.802 230.323 352.877 230.141 353.026 229.992C353.175 229.843 353.357 229.768 353.57 229.768C353.783 229.768 353.965 229.843 354.114 229.992C354.263 230.141 354.338 230.323 354.338 230.536C354.338 230.749 354.263 230.931 354.114 231.08ZM353.042 241V233H354.098V241H353.042ZM360.083 232.808C361.053 232.808 361.816 233.107 362.371 233.704C362.936 234.291 363.219 235.085 363.219 236.088V241H362.163V236.088C362.163 235.373 361.971 234.819 361.587 234.424C361.213 234.029 360.68 233.832 359.987 233.832C359.219 233.832 358.595 234.077 358.115 234.568C357.635 235.048 357.395 235.795 357.395 236.808V241H356.339V233H357.395V234.248C357.992 233.288 358.888 232.808 360.083 232.808ZM372.141 233H373.197V240.68C373.197 241.832 372.802 242.739 372.013 243.4C371.223 244.061 370.279 244.392 369.181 244.392C367.303 244.392 366.039 243.741 365.389 242.44L366.317 241.912C366.797 242.883 367.751 243.368 369.181 243.368C370.098 243.368 370.818 243.123 371.341 242.632C371.874 242.152 372.141 241.501 372.141 240.68V239.432C371.405 240.605 370.327 241.192 368.909 241.192C367.767 241.192 366.791 240.787 365.981 239.976C365.181 239.165 364.781 238.173 364.781 237C364.781 235.827 365.181 234.835 365.981 234.024C366.791 233.213 367.767 232.808 368.909 232.808C370.327 232.808 371.405 233.395 372.141 234.568V233ZM366.749 239.256C367.357 239.864 368.103 240.168 368.989 240.168C369.874 240.168 370.621 239.864 371.229 239.256C371.837 238.637 372.141 237.885 372.141 237C372.141 236.115 371.837 235.368 371.229 234.76C370.621 234.141 369.874 233.832 368.989 233.832C368.103 233.832 367.357 234.141 366.749 234.76C366.141 235.368 365.837 236.115 365.837 237C365.837 237.885 366.141 238.637 366.749 239.256Z" fill="white"/>
<path d="M293.288 327L289.16 315.8H290.376L293.864 325.512L297.352 315.8H298.568L294.44 327H293.288ZM300.614 317.08C300.465 317.229 300.283 317.304 300.07 317.304C299.857 317.304 299.675 317.229 299.526 317.08C299.377 316.931 299.302 316.749 299.302 316.536C299.302 316.323 299.377 316.141 299.526 315.992C299.675 315.843 299.857 315.768 300.07 315.768C300.283 315.768 300.465 315.843 300.614 315.992C300.763 316.141 300.838 316.323 300.838 316.536C300.838 316.749 300.763 316.931 300.614 317.08ZM299.542 327V319H300.598V327H299.542ZM303.671 321.096C303.671 321.459 303.831 321.747 304.151 321.96C304.471 322.173 304.86 322.339 305.319 322.456C305.777 322.573 306.236 322.707 306.695 322.856C307.153 322.995 307.543 323.235 307.863 323.576C308.183 323.907 308.343 324.344 308.343 324.888C308.343 325.571 308.071 326.125 307.527 326.552C306.993 326.979 306.3 327.192 305.447 327.192C304.679 327.192 304.023 327.021 303.479 326.68C302.945 326.339 302.572 325.896 302.359 325.352L303.255 324.824C303.404 325.24 303.671 325.571 304.055 325.816C304.449 326.051 304.913 326.168 305.447 326.168C305.969 326.168 306.407 326.067 306.759 325.864C307.111 325.651 307.287 325.325 307.287 324.888C307.287 324.525 307.127 324.237 306.807 324.024C306.487 323.811 306.097 323.645 305.639 323.528C305.18 323.411 304.721 323.283 304.263 323.144C303.804 322.995 303.415 322.755 303.095 322.424C302.775 322.083 302.615 321.64 302.615 321.096C302.615 320.445 302.871 319.901 303.383 319.464C303.905 319.027 304.561 318.808 305.351 318.808C306.001 318.808 306.572 318.957 307.063 319.256C307.553 319.544 307.916 319.939 308.151 320.44L307.271 320.952C306.961 320.205 306.321 319.832 305.351 319.832C304.892 319.832 304.497 319.944 304.167 320.168C303.836 320.381 303.671 320.691 303.671 321.096ZM315.658 319H316.714V327H315.658V325.752C315.061 326.712 314.165 327.192 312.97 327.192C312 327.192 311.232 326.899 310.666 326.312C310.112 325.715 309.834 324.915 309.834 323.912V319H310.89V323.912C310.89 324.627 311.077 325.181 311.45 325.576C311.834 325.971 312.373 326.168 313.066 326.168C313.834 326.168 314.458 325.928 314.938 325.448C315.418 324.957 315.658 324.205 315.658 323.192V319ZM325.828 319H326.884V327H325.828V325.432C325.092 326.605 324.015 327.192 322.596 327.192C321.455 327.192 320.479 326.787 319.668 325.976C318.868 325.165 318.468 324.173 318.468 323C318.468 321.827 318.868 320.835 319.668 320.024C320.479 319.213 321.455 318.808 322.596 318.808C324.015 318.808 325.092 319.395 325.828 320.568V319ZM320.436 325.256C321.044 325.864 321.791 326.168 322.676 326.168C323.561 326.168 324.308 325.864 324.916 325.256C325.524 324.637 325.828 323.885 325.828 323C325.828 322.115 325.524 321.368 324.916 320.76C324.308 320.141 323.561 319.832 322.676 319.832C321.791 319.832 321.044 320.141 320.436 320.76C319.828 321.368 319.524 322.115 319.524 323C319.524 323.885 319.828 324.637 320.436 325.256ZM329.12 327V315.32H330.176V327H329.12ZM340.897 315.8C342.422 315.8 343.681 316.344 344.673 317.432C345.676 318.509 346.177 319.832 346.177 321.4C346.177 322.968 345.676 324.296 344.673 325.384C343.681 326.461 342.422 327 340.897 327H336.577V315.8H340.897ZM340.897 325.944C342.124 325.944 343.126 325.507 343.905 324.632C344.694 323.757 345.089 322.68 345.089 321.4C345.089 320.12 344.694 319.043 343.905 318.168C343.126 317.293 342.124 316.856 340.897 316.856H337.697V325.944H340.897ZM351.629 318.808C352.813 318.808 353.767 319.229 354.493 320.072C355.229 320.904 355.597 321.891 355.597 323.032C355.597 323.149 355.586 323.315 355.565 323.528H348.541C348.647 324.339 348.989 324.984 349.565 325.464C350.151 325.933 350.871 326.168 351.725 326.168C352.333 326.168 352.855 326.045 353.293 325.8C353.741 325.544 354.077 325.213 354.301 324.808L355.229 325.352C354.877 325.917 354.397 326.365 353.789 326.696C353.181 327.027 352.487 327.192 351.709 327.192C350.45 327.192 349.426 326.797 348.637 326.008C347.847 325.219 347.453 324.216 347.453 323C347.453 321.805 347.842 320.808 348.621 320.008C349.399 319.208 350.402 318.808 351.629 318.808ZM351.629 319.832C350.797 319.832 350.098 320.083 349.533 320.584C348.978 321.075 348.647 321.715 348.541 322.504H354.509C354.402 321.661 354.077 321.005 353.533 320.536C352.989 320.067 352.354 319.832 351.629 319.832ZM357.796 321.096C357.796 321.459 357.956 321.747 358.276 321.96C358.596 322.173 358.985 322.339 359.444 322.456C359.902 322.573 360.361 322.707 360.82 322.856C361.278 322.995 361.668 323.235 361.988 323.576C362.308 323.907 362.468 324.344 362.468 324.888C362.468 325.571 362.196 326.125 361.652 326.552C361.118 326.979 360.425 327.192 359.572 327.192C358.804 327.192 358.148 327.021 357.604 326.68C357.07 326.339 356.697 325.896 356.484 325.352L357.38 324.824C357.529 325.24 357.796 325.571 358.18 325.816C358.574 326.051 359.038 326.168 359.572 326.168C360.094 326.168 360.532 326.067 360.884 325.864C361.236 325.651 361.412 325.325 361.412 324.888C361.412 324.525 361.252 324.237 360.932 324.024C360.612 323.811 360.222 323.645 359.764 323.528C359.305 323.411 358.846 323.283 358.388 323.144C357.929 322.995 357.54 322.755 357.22 322.424C356.9 322.083 356.74 321.64 356.74 321.096C356.74 320.445 356.996 319.901 357.508 319.464C358.03 319.027 358.686 318.808 359.476 318.808C360.126 318.808 360.697 318.957 361.188 319.256C361.678 319.544 362.041 319.939 362.276 320.44L361.396 320.952C361.086 320.205 360.446 319.832 359.476 319.832C359.017 319.832 358.622 319.944 358.292 320.168C357.961 320.381 357.796 320.691 357.796 321.096ZM365.223 317.08C365.074 317.229 364.893 317.304 364.679 317.304C364.466 317.304 364.285 317.229 364.135 317.08C363.986 316.931 363.911 316.749 363.911 316.536C363.911 316.323 363.986 316.141 364.135 315.992C364.285 315.843 364.466 315.768 364.679 315.768C364.893 315.768 365.074 315.843 365.223 315.992C365.373 316.141 365.447 316.323 365.447 316.536C365.447 316.749 365.373 316.931 365.223 317.08ZM364.151 327V319H365.207V327H364.151ZM374.328 319H375.384V326.68C375.384 327.832 374.989 328.739 374.2 329.4C373.411 330.061 372.467 330.392 371.368 330.392C369.491 330.392 368.227 329.741 367.576 328.44L368.504 327.912C368.984 328.883 369.939 329.368 371.368 329.368C372.285 329.368 373.005 329.123 373.528 328.632C374.061 328.152 374.328 327.501 374.328 326.68V325.432C373.592 326.605 372.515 327.192 371.096 327.192C369.955 327.192 368.979 326.787 368.168 325.976C367.368 325.165 366.968 324.173 366.968 323C366.968 321.827 367.368 320.835 368.168 320.024C368.979 319.213 369.955 318.808 371.096 318.808C372.515 318.808 373.592 319.395 374.328 320.568V319ZM368.936 325.256C369.544 325.864 370.291 326.168 371.176 326.168C372.061 326.168 372.808 325.864 373.416 325.256C374.024 324.637 374.328 323.885 374.328 323C374.328 322.115 374.024 321.368 373.416 320.76C372.808 320.141 372.061 319.832 371.176 319.832C370.291 319.832 369.544 320.141 368.936 320.76C368.328 321.368 368.024 322.115 368.024 323C368.024 323.885 368.328 324.637 368.936 325.256ZM381.364 318.808C382.335 318.808 383.097 319.107 383.652 319.704C384.217 320.291 384.5 321.085 384.5 322.088V327H383.444V322.088C383.444 321.373 383.252 320.819 382.868 320.424C382.495 320.029 381.961 319.832 381.268 319.832C380.5 319.832 379.876 320.077 379.396 320.568C378.916 321.048 378.676 321.795 378.676 322.808V327H377.62V319H378.676V320.248C379.273 319.288 380.169 318.808 381.364 318.808Z" fill="white"/>
</svg>
